<svg xmlns="http://www.w3.org/2000/svg" viewBox="0 0 1200 1600" width="1200" height="1600" role="img"><defs><linearGradient id="noche" x1="0" y1="0" x2="0" y2="1"><stop offset="0" stop-color="#1b2559"/><stop offset="0.5" stop-color="#3c3b73"/><stop offset="1" stop-color="#c96f61"/></linearGradient></defs><rect width="1200" height="1600" fill="url(#noche)"/><rect x="0" y="1180" width="70" height="420" fill="#111a33" opacity="0.72"/><rect x="14" y="1206" width="12" height="18" fill="#ffd27d" opacity=".75"/><rect x="44" y="1252" width="12" height="18" fill="#ffd27d" opacity=".75"/><rect x="14" y="1344" width="12" height="18" fill="#ffd27d" opacity=".75"/><rect x="44" y="1344" width="12" height="18" fill="#ffd27d" opacity=".75"/><rect x="14" y="1436" width="12" height="18" fill="#ffd27d" opacity=".75"/><rect x="44" y="1482" width="12" height="18" fill="#ffd27d" opacity=".75"/><rect x="14" y="1528" width="12" height="18" fill="#ffd27d" opacity=".75"/><rect x="80" y="1013" width="123" height="587" fill="#111a33" opacity="0.82"/><rect x="94" y="1039" width="12" height="18" fill="#ffd27d" opacity=".75"/><rect x="124" y="1039" width="12" height="18" fill="#ffd27d" opacity=".75"/><rect x="154" y="1085" width="12" height="18" fill="#ffd27d" opacity=".75"/><rect x="94" y="1131" width="12" height="18" fill="#ffd27d" opacity=".75"/><rect x="184" y="1131" width="12" height="18" fill="#ffd27d" opacity=".75"/><rect x="124" y="1177" width="12" height="18" fill="#ffd27d" opacity=".75"/><rect x="154" y="1177" width="12" height="18" fill="#ffd27d" opacity=".75"/><rect x="94" y="1223" width="12" height="18" fill="#ffd27d" opacity=".75"/><rect x="184" y="1223" width="12" height="18" fill="#ffd27d" opacity=".75"/><rect x="124" y="1269" width="12" height="18" fill="#ffd27d" opacity=".75"/><rect x="154" y="1315" width="12" height="18" fill="#ffd27d" opacity=".75"/><rect x="184" y="1315" width="12" height="18" fill="#ffd27d" opacity=".75"/><rect x="94" y="1361" width="12" height="18" fill="#ffd27d" opacity=".75"/><rect x="124" y="1361" width="12" height="18" fill="#ffd27d" opacity=".75"/><rect x="154" y="1407" width="12" height="18" fill="#ffd27d" opacity=".75"/><rect x="94" y="1453" width="12" height="18" fill="#ffd27d" opacity=".75"/><rect x="184" y="1453" width="12" height="18" fill="#ffd27d" opacity=".75"/><rect x="124" y="1499" width="12" height="18" fill="#ffd27d" opacity=".75"/><rect x="154" y="1499" width="12" height="18" fill="#ffd27d" opacity=".75"/><rect x="94" y="1545" width="12" height="18" fill="#ffd27d" opacity=".75"/><rect x="184" y="1545" width="12" height="18" fill="#ffd27d" opacity=".75"/><rect x="213" y="846" width="86" height="754" fill="#111a33" opacity="0.92"/><rect x="227" y="872" width="12" height="18" fill="#ffd27d" opacity=".75"/><rect x="257" y="918" width="12" height="18" fill="#ffd27d" opacity=".75"/><rect x="227" y="1010" width="12" height="18" fill="#ffd27d" opacity=".75"/><rect x="257" y="1010" width="12" height="18" fill="#ffd27d" opacity=".75"/><rect x="227" y="1102" width="12" height="18" fill="#ffd27d" opacity=".75"/><rect x="257" y="1148" width="12" height="18" fill="#ffd27d" opacity=".75"/><rect x="227" y="1194" width="12" height="18" fill="#ffd27d" opacity=".75"/><rect x="257" y="1240" width="12" height="18" fill="#ffd27d" opacity=".75"/><rect x="227" y="1332" width="12" height="18" fill="#ffd27d" opacity=".75"/><rect x="257" y="1332" width="12" height="18" fill="#ffd27d" opacity=".75"/><rect x="227" y="1424" width="12" height="18" fill="#ffd27d" opacity=".75"/><rect x="257" y="1470" width="12" height="18" fill="#ffd27d" opacity=".75"/><rect x="227" y="1516" width="12" height="18" fill="#ffd27d" opacity=".75"/><rect x="309" y="679" width="139" height="921" fill="#111a33" opacity="0.72"/><rect x="323" y="705" width="12" height="18" fill="#ffd27d" opacity=".75"/><rect x="413" y="705" width="12" height="18" fill="#ffd27d" opacity=".75"/><rect x="353" y="751" width="12" height="18" fill="#ffd27d" opacity=".75"/><rect x="383" y="797" width="12" height="18" fill="#ffd27d" opacity=".75"/><rect x="413" y="797" width="12" height="18" fill="#ffd27d" opacity=".75"/><rect x="323" y="843" width="12" height="18" fill="#ffd27d" opacity=".75"/><rect x="353" y="843" width="12" height="18" fill="#ffd27d" opacity=".75"/><rect x="383" y="889" width="12" height="18" fill="#ffd27d" opacity=".75"/><rect x="323" y="935" width="12" height="18" fill="#ffd27d" opacity=".75"/><rect x="413" y="935" width="12" height="18" fill="#ffd27d" opacity=".75"/><rect x="353" y="981" width="12" height="18" fill="#ffd27d" opacity=".75"/><rect x="383" y="981" width="12" height="18" fill="#ffd27d" opacity=".75"/><rect x="323" y="1027" width="12" height="18" fill="#ffd27d" opacity=".75"/><rect x="413" y="1027" width="12" height="18" fill="#ffd27d" opacity=".75"/><rect x="353" y="1073" width="12" height="18" fill="#ffd27d" opacity=".75"/><rect x="383" y="1119" width="12" height="18" fill="#ffd27d" opacity=".75"/><rect x="413" y="1119" width="12" height="18" fill="#ffd27d" opacity=".75"/><rect x="323" y="1165" width="12" height="18" fill="#ffd27d" opacity=".75"/><rect x="353" y="1165" width="12" height="18" fill="#ffd27d" opacity=".75"/><rect x="383" y="1211" width="12" height="18" fill="#ffd27d" opacity=".75"/><rect x="323" y="1257" width="12" height="18" fill="#ffd27d" opacity=".75"/><rect x="413" y="1257" width="12" height="18" fill="#ffd27d" opacity=".75"/><rect x="353" y="1303" width="12" height="18" fill="#ffd27d" opacity=".75"/><rect x="383" y="1303" width="12" height="18" fill="#ffd27d" opacity=".75"/><rect x="323" y="1349" width="12" height="18" fill="#ffd27d" opacity=".75"/><rect x="413" y="1349" width="12" height="18" fill="#ffd27d" opacity=".75"/><rect x="353" y="1395" width="12" height="18" fill="#ffd27d" opacity=".75"/><rect x="383" y="1441" width="12" height="18" fill="#ffd27d" opacity=".75"/><rect x="413" y="1441" width="12" height="18" fill="#ffd27d" opacity=".75"/><rect x="323" y="1487" width="12" height="18" fill="#ffd27d" opacity=".75"/><rect x="353" y="1487" width="12" height="18" fill="#ffd27d" opacity=".75"/><rect x="383" y="1533" width="12" height="18" fill="#ffd27d" opacity=".75"/><rect x="458" y="512" width="102" height="1088" fill="#111a33" opacity="0.82"/><rect x="502" y="538" width="12" height="18" fill="#ffd27d" opacity=".75"/><rect x="532" y="584" width="12" height="18" fill="#ffd27d" opacity=".75"/><rect x="472" y="630" width="12" height="18" fill="#ffd27d" opacity=".75"/><rect x="502" y="630" width="12" height="18" fill="#ffd27d" opacity=".75"/><rect x="532" y="676" width="12" height="18" fill="#ffd27d" opacity=".75"/><rect x="472" y="722" width="12" height="18" fill="#ffd27d" opacity=".75"/><rect x="502" y="768" width="12" height="18" fill="#ffd27d" opacity=".75"/><rect x="532" y="768" width="12" height="18" fill="#ffd27d" opacity=".75"/><rect x="472" y="814" width="12" height="18" fill="#ffd27d" opacity=".75"/><rect x="502" y="860" width="12" height="18" fill="#ffd27d" opacity=".75"/><rect x="532" y="906" width="12" height="18" fill="#ffd27d" opacity=".75"/><rect x="472" y="952" width="12" height="18" fill="#ffd27d" opacity=".75"/><rect x="502" y="952" width="12" height="18" fill="#ffd27d" opacity=".75"/><rect x="532" y="998" width="12" height="18" fill="#ffd27d" opacity=".75"/><rect x="472" y="1044" width="12" height="18" fill="#ffd27d" opacity=".75"/><rect x="502" y="1090" width="12" height="18" fill="#ffd27d" opacity=".75"/><rect x="532" y="1090" width="12" height="18" fill="#ffd27d" opacity=".75"/><rect x="472" y="1136" width="12" height="18" fill="#ffd27d" opacity=".75"/><rect x="502" y="1182" width="12" height="18" fill="#ffd27d" opacity=".75"/><rect x="532" y="1228" width="12" height="18" fill="#ffd27d" opacity=".75"/><rect x="472" y="1274" width="12" height="18" fill="#ffd27d" opacity=".75"/><rect x="502" y="1274" width="12" height="18" fill="#ffd27d" opacity=".75"/><rect x="532" y="1320" width="12" height="18" fill="#ffd27d" opacity=".75"/><rect x="472" y="1366" width="12" height="18" fill="#ffd27d" opacity=".75"/><rect x="502" y="1412" width="12" height="18" fill="#ffd27d" opacity=".75"/><rect x="532" y="1412" width="12" height="18" fill="#ffd27d" opacity=".75"/><rect x="472" y="1458" width="12" height="18" fill="#ffd27d" opacity=".75"/><rect x="502" y="1504" width="12" height="18" fill="#ffd27d" opacity=".75"/><rect x="532" y="1550" width="12" height="18" fill="#ffd27d" opacity=".75"/><rect x="570" y="1105" width="155" height="495" fill="#111a33" opacity="0.92"/><rect x="614" y="1131" width="12" height="18" fill="#ffd27d" opacity=".75"/><rect x="644" y="1131" width="12" height="18" fill="#ffd27d" opacity=".75"/><rect x="584" y="1177" width="12" height="18" fill="#ffd27d" opacity=".75"/><rect x="674" y="1177" width="12" height="18" fill="#ffd27d" opacity=".75"/><rect x="614" y="1223" width="12" height="18" fill="#ffd27d" opacity=".75"/><rect x="704" y="1223" width="12" height="18" fill="#ffd27d" opacity=".75"/><rect x="644" y="1269" width="12" height="18" fill="#ffd27d" opacity=".75"/><rect x="674" y="1269" width="12" height="18" fill="#ffd27d" opacity=".75"/><rect x="584" y="1315" width="12" height="18" fill="#ffd27d" opacity=".75"/><rect x="614" y="1315" width="12" height="18" fill="#ffd27d" opacity=".75"/><rect x="704" y="1315" width="12" height="18" fill="#ffd27d" opacity=".75"/><rect x="644" y="1361" width="12" height="18" fill="#ffd27d" opacity=".75"/><rect x="584" y="1407" width="12" height="18" fill="#ffd27d" opacity=".75"/><rect x="674" y="1407" width="12" height="18" fill="#ffd27d" opacity=".75"/><rect x="704" y="1407" width="12" height="18" fill="#ffd27d" opacity=".75"/><rect x="614" y="1453" width="12" height="18" fill="#ffd27d" opacity=".75"/><rect x="644" y="1453" width="12" height="18" fill="#ffd27d" opacity=".75"/><rect x="584" y="1499" width="12" height="18" fill="#ffd27d" opacity=".75"/><rect x="674" y="1499" width="12" height="18" fill="#ffd27d" opacity=".75"/><rect x="614" y="1545" width="12" height="18" fill="#ffd27d" opacity=".75"/><rect x="704" y="1545" width="12" height="18" fill="#ffd27d" opacity=".75"/><rect x="735" y="938" width="118" height="662" fill="#111a33" opacity="0.72"/><rect x="809" y="964" width="12" height="18" fill="#ffd27d" opacity=".75"/><rect x="749" y="1010" width="12" height="18" fill="#ffd27d" opacity=".75"/><rect x="779" y="1056" width="12" height="18" fill="#ffd27d" opacity=".75"/><rect x="809" y="1056" width="12" height="18" fill="#ffd27d" opacity=".75"/><rect x="749" y="1102" width="12" height="18" fill="#ffd27d" opacity=".75"/><rect x="779" y="1148" width="12" height="18" fill="#ffd27d" opacity=".75"/><rect x="809" y="1194" width="12" height="18" fill="#ffd27d" opacity=".75"/><rect x="749" y="1240" width="12" height="18" fill="#ffd27d" opacity=".75"/><rect x="779" y="1240" width="12" height="18" fill="#ffd27d" opacity=".75"/><rect x="809" y="1286" width="12" height="18" fill="#ffd27d" opacity=".75"/><rect x="749" y="1332" width="12" height="18" fill="#ffd27d" opacity=".75"/><rect x="779" y="1378" width="12" height="18" fill="#ffd27d" opacity=".75"/><rect x="809" y="1378" width="12" height="18" fill="#ffd27d" opacity=".75"/><rect x="749" y="1424" width="12" height="18" fill="#ffd27d" opacity=".75"/><rect x="779" y="1470" width="12" height="18" fill="#ffd27d" opacity=".75"/><rect x="809" y="1516" width="12" height="18" fill="#ffd27d" opacity=".75"/><rect x="863" y="771" width="81" height="829" fill="#111a33" opacity="0.82"/><rect x="877" y="797" width="12" height="18" fill="#ffd27d" opacity=".75"/><rect x="907" y="843" width="12" height="18" fill="#ffd27d" opacity=".75"/><rect x="877" y="889" width="12" height="18" fill="#ffd27d" opacity=".75"/><rect x="907" y="935" width="12" height="18" fill="#ffd27d" opacity=".75"/><rect x="877" y="1027" width="12" height="18" fill="#ffd27d" opacity=".75"/><rect x="907" y="1027" width="12" height="18" fill="#ffd27d" opacity=".75"/><rect x="877" y="1119" width="12" height="18" fill="#ffd27d" opacity=".75"/><rect x="907" y="1165" width="12" height="18" fill="#ffd27d" opacity=".75"/><rect x="877" y="1211" width="12" height="18" fill="#ffd27d" opacity=".75"/><rect x="907" y="1257" width="12" height="18" fill="#ffd27d" opacity=".75"/><rect x="877" y="1349" width="12" height="18" fill="#ffd27d" opacity=".75"/><rect x="907" y="1349" width="12" height="18" fill="#ffd27d" opacity=".75"/><rect x="877" y="1441" width="12" height="18" fill="#ffd27d" opacity=".75"/><rect x="907" y="1487" width="12" height="18" fill="#ffd27d" opacity=".75"/><rect x="877" y="1533" width="12" height="18" fill="#ffd27d" opacity=".75"/><rect x="954" y="604" width="134" height="996" fill="#111a33" opacity="0.92"/><rect x="1028" y="630" width="12" height="18" fill="#ffd27d" opacity=".75"/><rect x="1058" y="630" width="12" height="18" fill="#ffd27d" opacity=".75"/><rect x="968" y="676" width="12" height="18" fill="#ffd27d" opacity=".75"/><rect x="998" y="676" width="12" height="18" fill="#ffd27d" opacity=".75"/><rect x="1028" y="722" width="12" height="18" fill="#ffd27d" opacity=".75"/><rect x="968" y="768" width="12" height="18" fill="#ffd27d" opacity=".75"/><rect x="1058" y="768" width="12" height="18" fill="#ffd27d" opacity=".75"/><rect x="998" y="814" width="12" height="18" fill="#ffd27d" opacity=".75"/><rect x="1028" y="814" width="12" height="18" fill="#ffd27d" opacity=".75"/><rect x="968" y="860" width="12" height="18" fill="#ffd27d" opacity=".75"/><rect x="1058" y="860" width="12" height="18" fill="#ffd27d" opacity=".75"/><rect x="998" y="906" width="12" height="18" fill="#ffd27d" opacity=".75"/><rect x="1028" y="952" width="12" height="18" fill="#ffd27d" opacity=".75"/><rect x="1058" y="952" width="12" height="18" fill="#ffd27d" opacity=".75"/><rect x="968" y="998" width="12" height="18" fill="#ffd27d" opacity=".75"/><rect x="998" y="998" width="12" height="18" fill="#ffd27d" opacity=".75"/><rect x="1028" y="1044" width="12" height="18" fill="#ffd27d" opacity=".75"/><rect x="968" y="1090" width="12" height="18" fill="#ffd27d" opacity=".75"/><rect x="1058" y="1090" width="12" height="18" fill="#ffd27d" opacity=".75"/><rect x="998" y="1136" width="12" height="18" fill="#ffd27d" opacity=".75"/><rect x="1028" y="1136" width="12" height="18" fill="#ffd27d" opacity=".75"/><rect x="968" y="1182" width="12" height="18" fill="#ffd27d" opacity=".75"/><rect x="1058" y="1182" width="12" height="18" fill="#ffd27d" opacity=".75"/><rect x="998" y="1228" width="12" height="18" fill="#ffd27d" opacity=".75"/><rect x="1028" y="1274" width="12" height="18" fill="#ffd27d" opacity=".75"/><rect x="1058" y="1274" width="12" height="18" fill="#ffd27d" opacity=".75"/><rect x="968" y="1320" width="12" height="18" fill="#ffd27d" opacity=".75"/><rect x="998" y="1320" width="12" height="18" fill="#ffd27d" opacity=".75"/><rect x="1028" y="1366" width="12" height="18" fill="#ffd27d" opacity=".75"/><rect x="968" y="1412" width="12" height="18" fill="#ffd27d" opacity=".75"/><rect x="1058" y="1412" width="12" height="18" fill="#ffd27d" opacity=".75"/><rect x="998" y="1458" width="12" height="18" fill="#ffd27d" opacity=".75"/><rect x="1028" y="1458" width="12" height="18" fill="#ffd27d" opacity=".75"/><rect x="968" y="1504" width="12" height="18" fill="#ffd27d" opacity=".75"/><rect x="1058" y="1504" width="12" height="18" fill="#ffd27d" opacity=".75"/><rect x="998" y="1550" width="12" height="18" fill="#ffd27d" opacity=".75"/><rect x="1098" y="437" width="97" height="1163" fill="#111a33" opacity="0.72"/><rect x="1112" y="463" width="12" height="18" fill="#ffd27d" opacity=".75"/><rect x="1142" y="509" width="12" height="18" fill="#ffd27d" opacity=".75"/><rect x="1172" y="555" width="12" height="18" fill="#ffd27d" opacity=".75"/><rect x="1112" y="601" width="12" height="18" fill="#ffd27d" opacity=".75"/><rect x="1142" y="601" width="12" height="18" fill="#ffd27d" opacity=".75"/><rect x="1172" y="647" width="12" height="18" fill="#ffd27d" opacity=".75"/><rect x="1112" y="693" width="12" height="18" fill="#ffd27d" opacity=".75"/><rect x="1142" y="739" width="12" height="18" fill="#ffd27d" opacity=".75"/><rect x="1172" y="739" width="12" height="18" fill="#ffd27d" opacity=".75"/><rect x="1112" y="785" width="12" height="18" fill="#ffd27d" opacity=".75"/><rect x="1142" y="831" width="12" height="18" fill="#ffd27d" opacity=".75"/><rect x="1172" y="877" width="12" height="18" fill="#ffd27d" opacity=".75"/><rect x="1112" y="923" width="12" height="18" fill="#ffd27d" opacity=".75"/><rect x="1142" y="923" width="12" height="18" fill="#ffd27d" opacity=".75"/><rect x="1172" y="969" width="12" height="18" fill="#ffd27d" opacity=".75"/><rect x="1112" y="1015" width="12" height="18" fill="#ffd27d" opacity=".75"/><rect x="1142" y="1061" width="12" height="18" fill="#ffd27d" opacity=".75"/><rect x="1172" y="1061" width="12" height="18" fill="#ffd27d" opacity=".75"/><rect x="1112" y="1107" width="12" height="18" fill="#ffd27d" opacity=".75"/><rect x="1142" y="1153" width="12" height="18" fill="#ffd27d" opacity=".75"/><rect x="1172" y="1199" width="12" height="18" fill="#ffd27d" opacity=".75"/><rect x="1112" y="1245" width="12" height="18" fill="#ffd27d" opacity=".75"/><rect x="1142" y="1245" width="12" height="18" fill="#ffd27d" opacity=".75"/><rect x="1172" y="1291" width="12" height="18" fill="#ffd27d" opacity=".75"/><rect x="1112" y="1337" width="12" height="18" fill="#ffd27d" opacity=".75"/><rect x="1142" y="1383" width="12" height="18" fill="#ffd27d" opacity=".75"/><rect x="1172" y="1383" width="12" height="18" fill="#ffd27d" opacity=".75"/><rect x="1112" y="1429" width="12" height="18" fill="#ffd27d" opacity=".75"/><rect x="1142" y="1475" width="12" height="18" fill="#ffd27d" opacity=".75"/><rect x="1172" y="1521" width="12" height="18" fill="#ffd27d" opacity=".75"/></svg>